<svg xmlns="http://www.w3.org/2000/svg" viewBox="0 0 294.5 294.5" style="enable-background:new 0 0 294.5 294.5" xml:space="preserve"><circle style="fill:#28d2e4" cx="147.25" cy="153.5" r="119"/><path style="fill:#13829b" d="M147.25 34.5c8.133 0 16.075.819 23.75 2.373V7.5h-47.5v29.373a119.583 119.583 0 0 1 23.75-2.373zM276.852 262.85l-26.16-50.489a119.594 119.594 0 0 1-35.748 39.012L227 275.704A17.724 17.724 0 0 0 243.516 287h16.819c12.468 0 21.038-12.532 16.517-24.15zM43.808 212.36l-26.16 50.49C13.127 274.468 21.697 287 34.165 287h16.819A17.721 17.721 0 0 0 67.5 275.704l12.056-24.332a119.574 119.574 0 0 1-35.748-39.012z"/><circle style="fill:#ffdb77" cx="147.25" cy="153.5" r="84.146"/><path style="fill:#22313f" d="M283.841 260.129a7.476 7.476 0 0 0-.33-.73l-24.345-46.988c9.305-17.605 14.584-37.652 14.584-58.912 0-58.971-40.562-108.643-95.25-122.591V7.5A7.5 7.5 0 0 0 171 0h-47.5a7.5 7.5 0 0 0-7.5 7.5v23.409C61.312 44.857 20.75 94.529 20.75 153.5c0 21.26 5.279 41.307 14.584 58.912L10.989 259.4a7.476 7.476 0 0 0-.33.73c-6.44 16.55 5.813 34.37 23.506 34.37h16.819c10.358 0 19.493-6.165 23.373-15.739l8.218-16.586C101.511 273.488 123.633 280 147.25 280s45.739-6.512 64.676-17.825l8.218 16.586c3.88 9.574 13.015 15.739 23.373 15.739h16.819c17.691 0 29.946-17.819 23.505-34.371zM131 28.039V15h32.5v13.039A131.905 131.905 0 0 0 147.25 27c-4.989 0-10.804.342-16.171 1.03-.026.003-.053.005-.079.009zM60.78 272.375a7.504 7.504 0 0 0-.269.609 10.16 10.16 0 0 1-9.527 6.516H34.165c-7.1 0-11.975-7.003-9.648-13.603L44.514 227.3a128.213 128.213 0 0 0 25.521 26.394l-9.255 18.681zM35.75 153.5c0-55.709 41.068-102.007 94.519-110.209l.027-.004c11.374-1.743 23.142-1.65 33.909 0l.027.004c53.451 8.202 94.519 54.5 94.519 110.209 0 61.481-50.019 111.5-111.5 111.5S35.75 214.981 35.75 153.5zm224.585 126h-16.819a10.16 10.16 0 0 1-9.527-6.516 7.704 7.704 0 0 0-.269-.609l-9.256-18.681a128.187 128.187 0 0 0 25.521-26.394l19.998 38.597c2.325 6.594-2.54 13.603-9.648 13.603z"/><path style="fill:#22313f" d="M147.25 61.855c-50.534 0-91.646 41.112-91.646 91.645s41.112 91.646 91.646 91.646 91.645-41.112 91.645-91.646-41.111-91.645-91.645-91.645zm7.5 167.919V217.5a7.5 7.5 0 0 0-15 0v12.274c-36.287-3.541-65.233-32.487-68.774-68.774H83.25a7.5 7.5 0 0 0 0-15H70.976c3.541-36.287 32.487-65.233 68.774-68.774V89.5a7.5 7.5 0 0 0 15 0V77.226c36.287 3.541 65.233 32.487 68.774 68.774H211.25a7.5 7.5 0 0 0 0 15h12.274c-3.541 36.287-32.487 65.233-68.774 68.774z"/><path style="fill:#22313f" d="M167.583 146H154.75v-29.5a7.5 7.5 0 0 0-15 0v37a7.5 7.5 0 0 0 7.5 7.5h20.333a7.5 7.5 0 0 0 0-15z"/></svg>